:version 1.10
:name ASF
:units
  mass 1
  length 1
  angle deg
:documentation
  ASF file generated by Kaydara
:root
  axis xyz
  order  tx ty tz rx ry rz
  position 0 0 0
  orientation 0 0 0
:bonedata
  begin
    id 1
    name RightUpLegDummy
    direction -1 2.30186e-007 8.31532e-007
    length 4.04083
    axis 0 0 0 xyz
  end
  begin
    id 2
    name RightUpLeg
    direction -0.000919234 -0.999985 0.00544864
    length 17.4221
    axis -3.80308 -0.00076134 -0.0523649 xyz
    dof rx ry rz
  end
  begin
    id 3
    name RightLeg
    direction -0.000919271 -0.999984 -0.00555045
    length 17.1239
    axis 4.00314 0.0181274 -0.183583 xyz
    dof rx ry rz
  end
  begin
    id 4
    name RightFoot
    direction -2.57843e-005 -4.04509e-007 1
    length 6.72091
    axis 8.18909e-005 -0.122003 -0.403008 xyz
    dof rx ry rz
  end
  begin
    id 5
    name RightToes
    direction 0.00116825 -0.014069 0.9999
    length 3.85082
    axis 0.000514414 0.540638 -0.356797 xyz
    dof rx ry rz
  end
  begin
    id 6
    name SpineDummy
    direction 0.0168869 0.966876 -0.254689
    length 6.99894
    axis 0 0 0 xyz
  end
  begin
    id 7
    name Spine
    direction -0.0132008 0.999903 0.00446247
    length 11.1999
    axis -0.00148109 0.00725429 0.756411 xyz
    dof rx ry rz
  end
  begin
    id 8
    name Spine1
    direction 0 0 0
    length 0
    axis -0.000934958 0.0245693 1.46543 xyz
    dof rx ry rz
  end
  begin
    id 9
    name HEadDummy
    direction -0.0255732 0.999672 0.00128215
    length 3.43865
    axis -0.000934958 0.0245693 1.46543 xyz
  end
  begin
    id 10
    name HEad
    direction -0.0472656 0.980052 0.19304
    length 5.12695
    axis -0.000934954 0.0245693 1.46543 xyz
    dof rx ry rz
  end
  begin
    id 11
    name LeftShoulder1Dummy
    direction 0.953098 0.301717 -0.023914
    length 3.68488
    axis -0.000934958 0.0245693 1.46543 xyz
  end
  begin
    id 12
    name LeftShoulder1
    direction 0.962466 0.271167 0.0112566
    length 3.13809
    axis -0.000934958 0.0245693 1.46543 xyz
    dof rx ry rz
  end
  begin
    id 13
    name LeftArm
    direction 0.999943 0.00455037 -0.00961766
    length 11.3419
    axis -23.1648 0.685459 1.22814 xyz
    dof rx ry rz
  end
  begin
    id 14
    name LeftForeArm
    direction 0.999332 0.0131969 0.0340885
    length 8.70632
    axis -9.90633 0.618216 0.0826942 xyz
    dof rx ry rz
  end
  begin
    id 15
    name LeftHand
    direction 0.994373 -0.0366703 0.0993905
    length 5.32135
    axis 0.00675269 0.680415 0.445699 xyz
    dof rx ry rz
  end
  begin
    id 16
    name RightShoulderDummy
    direction -0.967298 0.252589 -0.0230903
    length 3.68488
    axis -0.000934958 0.0245693 1.46543 xyz
  end
  begin
    id 17
    name RightShoulder
    direction -0.975062 0.221602 0.0120823
    length 3.13809
    axis 0.216257 0.0246515 1.45863 xyz
    dof rx ry rz
  end
  begin
    id 18
    name RightArm
    direction -0.99886 -0.00851186 -0.0469687
    length 10.3947
    axis -23.196 0.23503 -0.532632 xyz
    dof rx ry rz
  end
  begin
    id 19
    name RightForeArm
    direction -0.99909 0.00114866 0.0426317
    length 8.68355
    axis -9.91764 -0.134943 0.610517 xyz
    dof rx ry rz
  end
  begin
    id 20
    name RightHand
    direction -0.992888 -0.0489538 0.10852
    length 5.28593
    axis -0.00275396 -0.197403 0.246414 xyz
    dof rx ry rz
  end
  begin
    id 21
    name LeftUpLegDummy
    direction 1 -2.30186e-007 -8.31532e-007
    length 4.04083
    axis 0 0 0 xyz
  end
  begin
    id 22
    name LeftUpLeg
    direction -0.000920097 -1 2.79241e-006
    length 17.4221
    axis -3.48782 0.00143434 -0.0532288 xyz
    dof rx ry rz
  end
  begin
    id 23
    name LeftLeg
    direction -0.000920097 -1 2.7912e-006
    length 17.1239
    axis 3.68162 -0.00806512 -0.0529896 xyz
    dof rx ry rz
  end
  begin
    id 24
    name LeftFoot
    direction -2.57845e-005 -3.987e-007 1
    length 6.72091
    axis 3.02372e-005 -0.00147829 -0.214229 xyz
    dof rx ry rz
  end
  begin
    id 25
    name LeftToes
    direction 0.00813577 -0.00488255 0.999955
    length 3.85048
    axis 3.89895e-005 -0.0014783 -0.214229 xyz
    dof rx ry rz
  end
:hierarchy
  begin
    root RightUpLegDummy SpineDummy LeftUpLegDummy
    RightUpLegDummy RightUpLeg
    RightUpLeg RightLeg
    RightLeg RightFoot
    RightFoot RightToes
    SpineDummy Spine
    Spine Spine1
    Spine1 HEadDummy LeftShoulder1Dummy RightShoulderDummy
    HEadDummy HEad
    LeftShoulder1Dummy LeftShoulder1
    LeftShoulder1 LeftArm
    LeftArm LeftForeArm
    LeftForeArm LeftHand
    RightShoulderDummy RightShoulder
    RightShoulder RightArm
    RightArm RightForeArm
    RightForeArm RightHand
    LeftUpLegDummy LeftUpLeg
    LeftUpLeg LeftLeg
    LeftLeg LeftFoot
    LeftFoot LeftToes
  end

:SAMPLES-PER-SECOND 30
:FULLY-SPECIFIED
:DEGREES
94
root  -10.0224 34.86 -18.1734 -171.224 -0.321533 -179.997
RightUpLeg  -4.07084 -14.558 3.39088
RightLeg  0.368266 -1.49998 0.0870746
RightFoot  3.29894 0.0194291 0.0583173
RightToes  -17.5238 -0.0661761 -0.161465
Spine  -3.86237 1.38648 -1.6882
Spine1  -7.75901 2.68577 -2.77545
HEad  -61.3357 -6.47319 14.1499
LeftShoulder1  -1.94126e-019 -3.10601e-018 -2.51263e-017
LeftArm  -7.57369 26.1772 -76.8363
LeftForeArm  34.5215 -15.7151 -2.65937
LeftHand  -0.366464 -1.04025 6.71062
RightShoulder  -4.96962e-017 0 -2.36833e-017
RightArm  -77.0154 8.38188 4.19962
RightForeArm  167.551 41.1668 170.886
RightHand  -0.308593 -0.597653 -7.45432
LeftUpLeg  -4.68176 -3.80653 -3.05902
LeftLeg  1.19542 15.314 -0.657223
LeftFoot  3.60695 -0.021746 1.12757
LeftToes  -6.88627 1.48347e-006 1.01831e-007
95
root  -10.0043 34.8591 -18.1638 -171.251 0.181473 -179.996
RightUpLeg  -4.16169 -14.2373 3.37799
RightLeg  0.506428 -1.33235 0.0741693
RightFoot  3.30785 0.0188191 0.0664819
RightToes  -17.759 -0.064831 -0.161418
Spine  -3.85671 1.43195 -1.6395
Spine1  -7.74866 2.77975 -2.68789
HEad  -61.3994 -6.17382 13.9182
LeftShoulder1  -1.94126e-019 -3.10601e-018 -2.51263e-017
LeftArm  -7.8715 26.4068 -76.4529
LeftForeArm  34.4095 -14.8753 -2.53056
LeftHand  -0.36226 -0.778923 6.93706
RightShoulder  -4.96962e-017 0 -2.36833e-017
RightArm  -77.1899 8.58151 4.39815
RightForeArm  167.375 41.2481 170.851
RightHand  -0.314078 -0.541501 -7.50583
LeftUpLeg  -4.62582 -3.14709 -3.0485
LeftLeg  1.17237 15.0961 -0.654106
LeftFoot  3.66201 -0.0204201 1.12751
LeftToes  -7.26221 1.48347e-006 1.01831e-007
96
root  -9.98302 34.8586 -18.1589 -171.27 0.33313 179.968
RightUpLeg  -4.10482 -14.2051 3.35099
RightLeg  0.411522 -1.18192 0.0677466
RightFoot  3.3251 0.0182313 0.0738499
RightToes  -17.7552 -0.0635651 -0.161285
Spine  -3.85419 1.37567 -1.58636
Spine1  -7.74074 2.67044 -2.57827
HEad  -61.4365 -5.96069 13.5673
LeftShoulder1  -1.94126e-019 -3.10601e-018 -2.51263e-017
LeftArm  -8.72081 26.591 -76.1814
LeftForeArm  34.3166 -13.8815 -2.37451
LeftHand  -0.356124 -0.54046 7.07429
RightShoulder  -4.96962e-017 0 -2.36833e-017
RightArm  -77.2829 8.64375 4.4104
RightForeArm  167.488 41.3341 170.832
RightHand  -0.312393 -0.594727 -7.54257
LeftUpLeg  -4.53448 -3.39812 -3.05103
LeftLeg  1.04113 15.4189 -0.702693
LeftFoot  3.75679 -0.0224113 1.17601
LeftToes  -7.45813 1.48347e-006 1.01831e-007
97
root  -9.9577 34.8584 -18.1577 -171.28 0.446426 179.945
RightUpLeg  -3.97931 -14.1973 3.35785
RightLeg  0.16695 -1.06276 0.0654086
RightFoot  3.41936 0.0178338 0.0780337
RightToes  -17.8183 -0.0623778 -0.161071
Spine  -3.87543 1.32912 -1.53975
Spine1  -7.78023 2.57937 -2.48091
HEad  -61.3608 -5.84874 13.287
LeftShoulder1  -1.94126e-019 -3.10601e-018 -2.51263e-017
LeftArm  -9.31828 26.7533 -75.9145
LeftForeArm  34.4356 -12.9375 -2.22721
LeftHand  -0.364715 -0.505098 7.28349
RightShoulder  -4.96962e-017 0 -2.36833e-017
RightArm  -77.2919 8.4733 4.34394
RightForeArm  167.873 41.4981 170.806
RightHand  -0.320484 -0.529882 -7.64285
LeftUpLeg  -4.42303 -3.45316 -3.05793
LeftLeg  0.837817 15.62 -0.766459
LeftFoot  3.8169 -0.0234793 1.20729
LeftToes  -7.34401 1.48347e-006 1.01831e-007
98
root  -9.92969 34.8585 -18.1487 -171.268 0.58522 179.93
RightUpLeg  -3.98245 -14.2634 3.39049
RightLeg  0.0906596 -0.88548 0.0556646
RightFoot  3.46867 0.0170948 0.0866438
RightToes  -17.7515 -0.0612685 -0.160781
Spine  -3.90639 1.29209 -1.5075
Spine1  -7.84013 2.50614 -2.41829
HEad  -61.2109 -5.78421 13.1422
LeftShoulder1  -1.94126e-019 -3.10601e-018 -2.51263e-017
LeftArm  -9.60071 26.8704 -75.6379
LeftForeArm  34.6579 -12.2085 -2.11104
LeftHand  -0.363885 -0.41294 7.37427
RightShoulder  -4.96962e-017 0 -2.36833e-017
RightArm  -77.3056 8.30046 4.44772
RightForeArm  167.569 41.6548 170.739
RightHand  -0.320349 -0.602615 -7.74808
LeftUpLeg  -4.32127 -3.07675 -3.05108
LeftLeg  0.582951 15.403 -0.823906
LeftFoot  3.96348 -0.024329 1.23244
LeftToes  -7.47651 1.48347e-006 1.01831e-007
99
root  -9.90438 34.8588 -18.1362 -171.266 0.713501 179.915
RightUpLeg  -4.01518 -14.2086 3.41015
RightLeg  0.0974051 -0.80027 0.050217
RightFoot  3.46808 0.0166183 0.0910611
RightToes  -17.7083 -0.0602362 -0.160422
Spine  -3.91766 1.26168 -1.46856
Spine1  -7.86083 2.44721 -2.34215
HEad  -61.2509 -5.7209 13.0315
LeftShoulder1  -1.94126e-019 -3.10601e-018 -2.51263e-017
LeftArm  -9.90547 26.9702 -75.4798
LeftForeArm  34.7907 -11.7874 -2.04227
LeftHand  -0.362059 -0.354935 7.46678
RightShoulder  -4.96962e-017 0 -2.36833e-017
RightArm  -77.2926 8.13424 4.50882
RightForeArm  167.867 41.742 170.731
RightHand  -0.324116 -0.586293 -7.81495
LeftUpLeg  -4.26616 -2.65642 -3.03663
LeftLeg  0.438514 15.1015 -0.845878
LeftFoot  4.04165 -0.0236439 1.23114
LeftToes  -7.62937 1.48347e-006 1.01831e-007
100
root  -9.88123 34.8592 -18.1251 -171.291 0.736252 179.898
RightUpLeg  -4.00423 -14.2373 3.42051
RightLeg  0.0953539 -0.726248 0.0455995
RightFoot  3.45229 0.0161423 0.0950435
RightToes  -17.7523 -0.0592805 -0.159997
Spine  -3.90354 1.21612 -1.42369
Spine1  -7.83061 2.35959 -2.25098
HEad  -61.4629 -5.69102 13.0215
LeftShoulder1  -1.94126e-019 -3.10601e-018 -2.51263e-017
LeftArm  -10.1809 27.1011 -75.4292
LeftForeArm  34.8425 -11.8252 -2.04741
LeftHand  -0.361004 -0.318745 7.5102
RightShoulder  -4.96962e-017 0 -2.36833e-017
RightArm  -77.2935 8.02014 4.5695
RightForeArm  167.454 41.8653 170.668
RightHand  -0.313519 -0.650395 -7.65301
LeftUpLeg  -4.24533 -2.67153 -3.01021
LeftLeg  0.423353 15.1168 -0.850678
LeftFoot  4.05109 -0.0233939 1.23415
LeftToes  -7.79899 1.48347e-006 1.01831e-007
101
root  -9.85763 34.8596 -18.1166 -171.302 0.818619 179.875
RightUpLeg  -3.99246 -14.2669 3.4288
RightLeg  0.0576122 -0.613901 0.0389435
RightFoot  3.45296 0.0155013 0.100967
RightToes  -17.7631 -0.0584006 -0.159513
Spine  -3.90142 1.20111 -1.40155
Spine1  -7.82568 2.33147 -2.20573
HEad  -61.6625 -5.69228 13.0327
LeftShoulder1  -1.94126e-019 -3.10601e-018 -2.51263e-017
LeftArm  -10.1215 27.1704 -75.3843
LeftForeArm  34.8966 -12.0834 -2.09169
LeftHand  -0.364215 -0.471153 7.38765
RightShoulder  -4.96962e-017 0 -2.36833e-017
RightArm  -77.2584 7.91842 4.71791
RightForeArm  167.391 42.003 170.622
RightHand  -0.316131 -0.644576 -7.70847
LeftUpLeg  -4.25516 -2.76278 -2.99948
LeftLeg  0.459351 15.2877 -0.850551
LeftFoot  4.01618 -0.0233307 1.23773
LeftToes  -7.82499 1.48347e-006 1.01831e-007
102
root  -9.83508 34.86 -18.1073 -171.304 0.970413 179.862
RightUpLeg  -3.9747 -14.2329 3.44483
RightLeg  -0.0281161 -0.493217 0.0320054
RightFoot  3.50832 0.0148239 0.107007
RightToes  -17.867 -0.0575957 -0.158974
Spine  -3.91698 1.21239 -1.37155
Spine1  -7.85722 2.35706 -2.14592
HEad  -61.724 -5.69157 13.0327
LeftShoulder1  -1.94126e-019 -3.10601e-018 -2.51263e-017
LeftArm  -10.0515 27.2436 -75.4446
LeftForeArm  34.9717 -12.4254 -2.14642
LeftHand  -0.3655 -0.607756 7.34262
RightShoulder  -4.96962e-017 0 -2.36833e-017
RightArm  -77.136 7.92758 4.91941
RightForeArm  167.71 42.1793 170.586
RightHand  -0.315393 -0.670164 -7.75513
LeftUpLeg  -4.24849 -2.67327 -2.99476
LeftLeg  0.438414 15.3683 -0.860487
LeftFoot  4.03421 -0.0232419 1.23873
LeftToes  -7.90945 1.48347e-006 1.01831e-007
103
root  -9.81547 34.8603 -18.0945 -171.31 1.12773 179.852
RightUpLeg  -3.97527 -14.2006 3.45748
RightLeg  -0.0738622 -0.379453 0.0249109
RightFoot  3.53551 0.014123 0.112992
RightToes  -17.8771 -0.0568653 -0.158386
Spine  -3.92876 1.23466 -1.33633
Spine1  -7.88162 2.4051 -2.0782
HEad  -61.729 -5.63149 12.9948
LeftShoulder1  -1.94126e-019 -3.10601e-018 -2.51263e-017
LeftArm  -10.0048 27.2735 -75.6117
LeftForeArm  34.8377 -12.9192 -2.22641
LeftHand  -0.364426 -0.522983 7.34774
RightShoulder  -4.96962e-017 0 -2.36833e-017
RightArm  -77.0189 7.97744 5.15831
RightForeArm  167.422 42.337 170.519
RightHand  -0.314467 -0.699544 -7.7509
LeftUpLeg  -4.24741 -2.40287 -2.98887
LeftLeg  0.427282 15.2563 -0.857303
LeftFoot  4.03643 -0.0232361 1.23898
LeftToes  -7.92454 1.48347e-006 1.01831e-007
104
root  -9.79614 34.8605 -18.0837 -171.332 1.26357 179.84
RightUpLeg  -3.98177 -14.0802 3.46418
RightLeg  -0.0603003 -0.376178 0.0225576
RightFoot  3.53903 0.013915 0.111554
RightToes  -17.8802 -0.0562085 -0.157755
Spine  -3.92648 1.25046 -1.30112
Spine1  -7.87756 2.44038 -2.00992
HEad  -61.7547 -5.48177 12.8853
LeftShoulder1  -1.94126e-019 -3.10601e-018 -2.51263e-017
LeftArm  -9.9967 27.2501 -75.8347
LeftForeArm  34.7208 -13.4503 -2.31209
LeftHand  -0.366702 -0.584057 7.23286
RightShoulder  -4.96962e-017 0 -2.36833e-017
RightArm  -76.9087 8.07013 5.35828
RightForeArm  167.593 42.3666 170.521
RightHand  -0.314623 -0.669617 -7.66555
LeftUpLeg  -4.2451 -2.272 -2.97753
LeftLeg  0.46924 15.2474 -0.845754
LeftFoot  4.03975 -0.0234546 1.24079
LeftToes  -8.06768 1.48347e-006 1.01831e-007
